<?xml version="1.0" encoding="utf-8"?>
<!-- Generator: Adobe Illustrator 16.0.0, SVG Export Plug-In . SVG Version: 6.00 Build 0)  -->
<!DOCTYPE svg PUBLIC "-//W3C//DTD SVG 1.1//EN" "http://www.w3.org/Graphics/SVG/1.1/DTD/svg11.dtd">
<svg version="1.1" id="Capa_1" xmlns="http://www.w3.org/2000/svg" xmlns:xlink="http://www.w3.org/1999/xlink" x="0px" y="0px"
	 width="789.927px" height="393.239px" viewBox="0 0 789.927 393.239" enable-background="new 0 0 789.927 393.239"
	 xml:space="preserve">
<g opacity="0.9">
	<path fill="#FFFFFF" d="M774.431,287.094l-0.309-2.561c-0.224-1.804-0.471-3.794-0.821-5.83
		c-2.921-17.031-10.641-31.877-22.943-44.118c-8.164-8.123-17.569-14.236-28.059-18.254c-3.117-37.899-33.759-68.155-71.85-70.744
		L600.254,30.766c-2.229-5.098-7.264-8.392-12.828-8.392h-53.051c-5.563,0-10.6,3.294-12.828,8.393l-30.175,69.027
		c-2-1.102-4.299-1.728-6.743-1.728h-13.392l27.219-23.974c5.648-4.975,6.353-13.525,1.594-19.357
		c-9.486-11.625-21.624-20.668-36.076-26.879c-14.134-6.064-30.265-9.139-47.949-9.139c-10.73,0-21.029,1.229-30.645,3.656H227.925
		H194.22h-10.659c-4.936,0-9.506,2.599-12.03,6.84l-38.85,65.271L92.596,29.06c-2.545-4.153-7.066-6.686-11.938-6.686H36.295
		c-7.732,0-14,6.268-14,14v140.067v20.005v162.862c0,7.732,6.268,14,14,14h36.722c4.01,0,7.627-1.687,10.18-4.389
		c9.246,4.225,19.801,6.361,31.47,6.361c14.888,0,28.54-3.479,40.575-10.338c8.681-4.95,16.126-11.378,22.253-19.168
		c0.629,1.155,1.302,2.293,2.027,3.41c5.351,8.25,12.994,14.788,22.716,19.432c9.265,4.423,20.25,6.664,32.651,6.664
		c11.75,0,22.03-1.996,30.65-5.944c2.522,2.458,5.969,3.972,9.769,3.972h35.982c2.158,0,4.193-0.503,6.019-1.375
		c1.826,0.872,3.861,1.375,6.019,1.375h38.448c1.978,0,3.861-0.41,5.567-1.15c1.706,0.74,3.589,1.15,5.567,1.15h38.447
		c7.732,0,14-6.268,14-14V213.693c9.693-0.758,19.632-2.554,29.665-5.365c0.46-0.129,0.918-0.261,1.377-0.394
		c2.314,1.612,5.099,2.513,8.003,2.513h3.231c-11.477,10.847-19.812,23.804-24.781,38.539c-7.768,23.032-7,46.079,2.282,68.497
		c1.661,4.018,3.644,7.959,5.907,11.741c0.465,1.254,1.118,2.458,1.958,3.568l8.148,10.785c0.838,1.11,1.833,2.083,2.946,2.891
		c0.217,0.242,0.46,0.502,0.73,0.771c0.017,0.018,0.035,0.035,0.052,0.052c19.467,19.213,42.356,28.955,68.031,28.955
		c6.668,0,13.603-0.672,20.612-1.998c10.249-1.938,20.357-5.905,30.043-11.794c14.086-8.569,25.329-19.87,33.42-33.592
		c0.449-0.763,0.888-1.528,1.314-2.297c3.999,8.815,9.588,16.826,16.727,23.953c11.752,11.738,26.05,19.285,42.495,22.43
		c2.244,0.432,4.428,0.672,6.022,0.848c0.594,0.065,1.2,0.135,1.808,0.211l0.096,0.019c0.795,0.151,1.601,0.233,2.41,0.244
		l8.68,0.125c0.067,0.001,0.135,0.002,0.202,0.002c0.514,0,1.027-0.028,1.538-0.085l0.15-0.017c0.134-0.015,0.269-0.031,0.403-0.051
		c0.52-0.072,1.044-0.137,1.566-0.202l0.524-0.065l0.053-0.006c1.823-0.229,3.708-0.464,5.705-0.81
		c17.004-2.939,31.807-10.627,43.995-22.85c11.721-11.741,19.267-26.035,22.424-42.479c0.416-2.166,0.636-4.162,0.831-5.923
		l0.013-0.117c0.065-0.604,0.13-1.187,0.2-1.761l0-0.002c0.168-0.84,0.263-1.714,0.274-2.571l0.118-8.495
		C774.539,288.339,774.505,287.714,774.431,287.094z"/>
	<path fill="#FFFFFF" d="M91.02,305.986c-1.839-3.422-2.77-7.784-2.77-12.971c0-5.319,0.917-9.697,2.725-13.011
		c1.725-3.163,3.954-5.508,6.817-7.17c2.946-1.71,6.29-2.542,10.222-2.542c3.891,0,7.169,0.816,10.021,2.497
		c2.857,1.688,5.143,4.099,6.974,7.36c1.835,3.276,2.768,7.607,2.768,12.865c0,5.126-0.948,9.442-2.817,12.83
		c-1.822,3.297-4.093,5.721-6.938,7.401c-2.838,1.673-6.115,2.489-10.008,2.489c-3.934,0-7.276-0.831-10.22-2.541
		C94.955,311.546,92.74,309.188,91.02,305.986z"/>
	<path fill="#FFFFFF" d="M648.717,89.207h0.082h0.071c18.275,0,33.381-14.891,33.674-33.194c0.145-9.027-3.252-17.573-9.565-24.062
		c-6.281-6.455-14.676-10.088-23.638-10.229c-0.179-0.003-0.36-0.005-0.539-0.005c-18.36,0-33.499,14.932-33.747,33.285
		c-0.124,9.09,3.333,17.67,9.735,24.159C631.18,85.639,639.678,89.207,648.717,89.207z M647.773,54.325
		c-0.425,0-0.85-0.001-1.275-0.003h0C646.923,54.323,647.349,54.325,647.773,54.325z M649.691,57.254
		c-0.665,0.012-1.33,0.016-2.001,0.016c-0.079,0-0.161-0.001-0.24-0.001C648.203,57.27,648.947,57.268,649.691,57.254z
		 M649.965,57.282c-0.031-0.008-0.071-0.008-0.106-0.013C649.894,57.274,649.934,57.274,649.965,57.282z M650.155,57.372
		c-0.021-0.017-0.049-0.023-0.072-0.036C650.106,57.348,650.135,57.355,650.155,57.372z M650.296,57.53
		c-0.013-0.021-0.03-0.034-0.045-0.053C650.266,57.496,650.283,57.508,650.296,57.53z"/>
</g>
<g>
	<g>
		<g>
			<path d="M760.223,286.208c-0.213-1.717-0.427-3.434-0.719-5.131c-2.421-14.115-8.82-26.418-19.021-36.567
				c-9.708-9.66-21.493-15.872-35.017-18.462c-1.685-0.324-3.383-0.519-5.022-0.703c-0.773-0.089-1.549-0.179-2.324-0.278
				c-0.243-0.033-0.483-0.081-0.725-0.131l-8.495-0.115l-2.6,0.315c-1.707,0.211-3.409,0.424-5.103,0.713
				c-12.833,2.18-24.232,7.724-33.891,16.479c-11.163,10.116-18.283,22.798-21.161,37.693c-0.313,1.628-0.499,3.268-0.674,4.85
				c-0.085,0.753-0.168,1.504-0.266,2.243c-0.038,0.274-0.09,0.555-0.141,0.832l-0.11,8.505l0.309,2.563
				c0.209,1.714,0.426,3.428,0.717,5.125c2.423,14.073,8.79,26.345,18.933,36.472c9.737,9.726,21.591,15.978,35.232,18.586
				c1.653,0.318,3.317,0.506,4.924,0.683c0.767,0.085,1.536,0.173,2.308,0.273c0.228,0.028,0.449,0.075,0.676,0.118l8.68,0.125
				l0.15-0.017c0.76-0.106,1.526-0.198,2.288-0.294c1.711-0.214,3.422-0.427,5.115-0.72c14.096-2.437,26.364-8.808,36.469-18.94
				c9.712-9.729,15.968-21.584,18.589-35.233c0.318-1.657,0.499-3.325,0.677-4.936c0.083-0.767,0.169-1.532,0.264-2.287
				c0.033-0.233,0.081-0.471,0.128-0.705l0.118-8.495L760.223,286.208z M702.268,329.998c-0.451,0.172-0.737,0.208-0.896,0.208
				c-0.361,0-0.744-0.313-1.623-1.904c-3.219-5.8-6.624-11.611-9.912-17.229l-1.844-3.164c3.274-6.128,6.508-12.279,9.756-18.511
				c8.728-0.867,17.458-1.768,26.171-2.723c0.132-0.019,0.252-0.025,0.535-0.028c0.003,0,0.094,0.072,0.246,0.342
				c2.938,5.092,6.009,10.206,8.979,15.153l0.929,1.559c-0.007,0.004-0.009,0.012-0.015,0.022
				c-4.35,8.024-8.657,16.07-12.943,24.129c-0.12,0.231-0.187,0.281-0.271,0.278c-4.727,0.545-9.444,1.14-14.169,1.733l-1.647,0.206
				l0.16-1.387L702.268,329.998z M723.592,278.05c-6.178,0.665-12.358,1.295-18.542,1.921l-7.354,0.75
				c-4.543-5.034-9.084-10.066-13.592-15.126c2.329-7.097,4.681-14.182,7.075-21.266c6.332-0.82,13.064-1.57,19.822-1.355
				c6.056,6.781,12.094,13.578,18.104,20.405C727.28,268.364,725.429,273.29,723.592,278.05z M635.005,279.759
				c1.388-2.329,2.792-4.652,4.214-7.005l1.061,0.628c3.693,2.187,7.292,4.313,10.871,6.471c0.163,2.109,0.321,4.225,0.477,6.337
				c0.236,3.239,0.474,6.477,0.752,9.708c0.144,1.651,0.468,3.247,0.781,4.791l0.178,0.871c0.102,0.529,0.043,0.747-0.178,1.09
				c-2.477,3.8-4.912,7.626-7.348,11.45l-2.197,3.452c-2.918-1.871-5.033-3.657-6.717-5.649c-0.398-0.468-0.647-1.545-0.862-2.496
				c-0.093-0.393-0.184-0.788-0.286-1.164C633.233,298.894,632.988,289.371,635.005,279.759z M659.551,308.619
				c6.982,1.438,13.968,2.813,20.968,4.16c0.398,0.072,0.41,0.097,0.533,0.31c4.06,7.101,8.15,14.177,12.318,21.321
				c-1.403,1.866-2.788,3.753-4.173,5.64c-0.896,1.224-1.79,2.448-2.667,3.632l-12.444-2.217c-4.875-0.868-9.746-1.735-14.64-2.638
				c-3.499-4.248-6.693-9.024-9.804-14.672C652.962,319.021,656.247,313.862,659.551,308.619z M736.885,258.666
				c-0.516-0.268-0.711-0.422-0.786-0.51c-2.691-3.019-5.38-6.043-8.063-9.068c-2.646-2.978-5.29-5.955-7.916-8.862
				c9.771,5.173,17.39,12.322,23.087,21.663C741.095,260.814,738.984,259.742,736.885,258.666z M653.004,248.845l0.708-0.625
				c5.493-4.885,11.825-8.646,18.822-11.184c0.168-0.059,0.029-0.171,0.558,0.033c3.305,1.289,6.546,2.962,9.717,5.032
				c-0.988,2.928-1.964,5.862-2.937,8.798c-1.21,3.633-2.415,7.268-3.664,10.895c-7.252,2.958-14.165,6.505-20.646,10.602
				c-2.501-1.507-5.011-2.992-7.525-4.478l-4.481-2.652c0.468-1.084,0.92-2.177,1.369-3.269c1.262-3.067,2.455-5.97,3.971-8.725
				C649.766,251.687,651.411,250.242,653.004,248.845z M730.286,338.23c-0.453-1.913-0.896-3.805-1.322-5.707
				c4.603-8.634,9.224-17.256,13.929-25.928c2.745-1.531,5.498-3.046,8.196-4.528C748.758,317.585,739.602,330.775,730.286,338.23z"
				/>
		</g>
		<g>
			<path fill-rule="evenodd" clip-rule="evenodd" fill="#FFFFFF" d="M703.065,332.095c-2.893,1.099-4.066-0.512-5.277-2.705
				c-3.804-6.858-7.801-13.612-11.759-20.383c-0.439-0.752-0.469-1.307-0.051-2.092c3.314-6.204,6.588-12.424,9.835-18.664
				c0.385-0.733,0.83-0.998,1.652-1.078c8.74-0.871,17.482-1.771,26.212-2.729c1.385-0.15,2.226,0.139,2.968,1.427
				c3.234,5.605,6.577,11.154,9.908,16.703c0.475,0.782,0.452,1.4,0.014,2.217c-4.346,8.021-8.652,16.06-12.935,24.111
				c-0.454,0.86-0.956,1.336-1.993,1.458c-6.22,0.716-12.432,1.518-18.646,2.295C703.02,332.468,703.042,332.281,703.065,332.095z"
				/>
		</g>
		<g>
			<path fill-rule="evenodd" clip-rule="evenodd" fill="#FFFFFF" d="M696.982,283.048c-0.126-0.096-0.45-0.27-0.68-0.525
				c-4.771-5.28-9.531-10.562-14.262-15.874c-0.241-0.271-0.354-0.869-0.241-1.218c2.451-7.485,4.935-14.953,7.454-22.416
				c0.116-0.348,0.586-0.771,0.938-0.82c7.018-0.916,14.047-1.719,21.145-1.453c0.438,0.017,0.97,0.326,1.276,0.668
				c6.188,6.932,12.363,13.88,18.501,20.858c0.282,0.318,0.411,1.029,0.263,1.43c-1.911,5.235-3.87,10.453-5.879,15.651
				c-0.154,0.396-0.747,0.83-1.178,0.878c-7.709,0.836-15.428,1.609-23.144,2.394C699.864,282.756,698.548,282.891,696.982,283.048z
				"/>
		</g>
		<g>
			<path fill-rule="evenodd" clip-rule="evenodd" fill="#FFFFFF" d="M687.257,346.086c-3.95-0.701-7.644-1.355-11.335-2.016
				c-5.618-1.004-11.245-2.001-16.856-3.043c-0.489-0.088-1.041-0.395-1.352-0.773c-3.884-4.721-7.198-9.83-10.139-15.193
				c-0.403-0.738-0.384-1.245,0.075-1.955c3.447-5.337,6.859-10.691,10.245-16.069c0.467-0.743,0.872-0.866,1.741-0.688
				c7.091,1.46,14.196,2.856,21.308,4.225c0.942,0.184,1.56,0.537,2.058,1.404c4.123,7.218,8.288,14.411,12.478,21.586
				c0.434,0.743,0.41,1.222-0.106,1.912c-2.46,3.271-4.854,6.593-7.294,9.881C687.83,345.694,687.444,345.924,687.257,346.086z"/>
		</g>
		<g>
			<path fill-rule="evenodd" clip-rule="evenodd" fill="#FFFFFF" d="M640.99,266.076c0.163-0.649,0.209-0.998,0.342-1.308
				c1.821-4.211,3.395-8.566,5.596-12.575c1.207-2.194,3.362-3.933,5.291-5.649c5.757-5.119,12.284-8.982,19.547-11.611
				c0.774-0.283,1.375-0.254,2.143,0.047c3.75,1.463,7.27,3.329,10.612,5.561c0.748,0.499,0.873,0.912,0.586,1.76
				c-2.272,6.731-4.471,13.492-6.758,20.215c-0.184,0.543-0.756,1.136-1.292,1.355c-7.157,2.919-14.009,6.418-20.525,10.572
				c-0.652,0.412-1.122,0.483-1.821,0.058c-4.267-2.574-8.569-5.085-12.852-7.639C641.487,266.641,641.206,266.276,640.99,266.076z"
				/>
		</g>
		<g>
			<path fill-rule="evenodd" clip-rule="evenodd" fill="#FFFFFF" d="M638.446,269.69c4.941,2.926,9.676,5.715,14.377,8.552
				c0.309,0.183,0.507,0.747,0.539,1.149c0.432,5.437,0.783,10.879,1.251,16.316c0.159,1.819,0.564,3.62,0.922,5.414
				c0.203,1.011,0.092,1.842-0.497,2.752c-3.351,5.142-6.627,10.335-9.931,15.508c-0.249,0.392-0.515,0.765-0.823,1.216
				c-3.419-2.021-6.594-4.284-9.102-7.25c-0.962-1.144-1.178-2.972-1.598-4.524c-2.618-9.721-2.877-19.517-0.759-29.364
				c0.058-0.291,0.104-0.604,0.252-0.85C634.842,275.653,636.628,272.706,638.446,269.69z"/>
		</g>
		<g>
			<path fill-rule="evenodd" clip-rule="evenodd" fill="#FFFFFF" d="M728.883,342.058c-0.742-3.148-1.475-6.207-2.16-9.275
				c-0.085-0.362,0.009-0.845,0.188-1.18c4.628-8.683,9.276-17.35,13.946-26.012c0.201-0.378,0.564-0.744,0.945-0.956
				c4.038-2.252,8.095-4.473,11.98-6.607C752.544,316.518,741.564,333.414,728.883,342.058z"/>
		</g>
		<g>
			<path fill-rule="evenodd" clip-rule="evenodd" fill="#FFFFFF" d="M715.883,235.719c15.001,6.442,25.761,16.78,32.75,31.527
				c-0.605-0.35-0.944-0.561-1.3-0.744c-3.824-1.945-7.661-3.885-11.481-5.844c-0.513-0.27-1.052-0.585-1.428-1.006
				c-6.051-6.784-12.061-13.598-18.12-20.373C715.329,238.192,716.039,237.122,715.883,235.719z"/>
		</g>
		<g>
			<path fill-rule="evenodd" clip-rule="evenodd" fill="#FFFFFF" d="M694.533,353.686c-11.165,0.508-21.606-2.008-31.314-7.624
				c1.722,0.292,3.446,0.572,5.166,0.877c5.749,1.017,11.499,2.03,17.24,3.082c0.779,0.143,1.549,0.438,2.283,0.755
				C690.129,351.721,692.328,352.712,694.533,353.686z"/>
		</g>
	</g>
	<g>
		<path fill="#BF0411" d="M587.427,36.374h-53.051L484.63,150.172v-38.105h-24.875h-22.002h-26.131v28.506h26.131v12.067
			c-0.615,0.247-1.227,0.487-1.832,0.702c-5.795,2.06-11.74,3.088-17.836,3.088c-5.795,0-11.016-0.95-15.664-2.858
			c-4.652-1.905-8.652-4.61-12.004-8.118c-3.355-3.505-5.947-7.736-7.777-12.69c-1.828-4.953-2.742-10.405-2.742-16.353
			c0-6.248,0.914-11.811,2.742-16.691c1.83-4.879,4.422-9.07,7.777-12.578c3.352-3.504,7.43-6.174,12.232-8.004
			c4.803-1.828,10.176-2.744,16.123-2.744c7.162,0,13.68,1.486,19.551,4.46c5.867,2.973,11.318,7.356,16.35,13.147l34.531-30.413
			c-8.084-9.907-18.334-17.529-30.756-22.867c-12.428-5.333-26.566-8.002-42.422-8.002c-10.281,0-19.893,1.229-28.846,3.656H227.925
			H194.22h-10.659l-50.706,85.193L80.658,36.374H36.295v160.072H85.46v-70.484l34.758,56.078H144l34.828-58.608l0.388,73.015h15.004
			h34.162h98.928v-40.703h-80.037v-21.038h67.688V95.83h-67.688V77.079h87.482c-0.938,1.788-1.836,3.606-2.649,5.488
			c-4.426,10.215-6.634,21.495-6.634,33.843c0,12.35,2.208,23.633,6.634,33.844c4.418,10.218,10.632,19.061,18.635,26.526
			c8.004,7.472,17.455,13.229,28.354,17.264c10.898,4.039,22.83,6.063,35.789,6.063c11.736,0,23.857-1.756,36.359-5.26
			c5.766-1.617,11.229-3.575,16.412-5.842l-3.254,7.441h54.885l10.721-27.898h60.881l10.721,27.898h55.795L587.427,36.374z
			 M544.95,129.674l15.494-40.319l15.5,40.319H544.95z"/>
	</g>
	<g>
		<g>
			<path d="M148.309,233.127c-9.944-5.584-21.158-8.38-33.642-8.38c-11.176,0-20.948,2.463-29.328,7.396
				c-3.944,2.318-7.472,5.21-10.597,8.658v-64.359H36.295v182.868h36.722v-15.356c3.317,4.025,7.174,7.343,11.583,9.937
				c8.38,4.929,18.399,7.393,30.067,7.393c12.484,0,23.698-2.833,33.642-8.501c9.938-5.667,17.825-13.595,23.658-23.784
				c5.832-10.186,8.75-22.18,8.75-35.981c0-13.962-2.919-26.041-8.75-36.232C166.134,246.601,158.247,238.715,148.309,233.127z
				 M137.218,312.609c-3.043,5.506-7.066,9.732-12.076,12.691c-5.015,2.957-10.721,4.436-17.128,4.436s-12.162-1.479-17.252-4.436
				c-5.095-2.959-9.119-7.186-12.076-12.691c-2.958-5.505-4.436-12.036-4.436-19.594c0-7.722,1.477-14.295,4.436-19.717
				c2.957-5.422,6.98-9.611,12.076-12.57c5.09-2.955,10.845-4.436,17.252-4.436s12.113,1.48,17.128,4.436
				c5.009,2.959,9.033,7.148,12.076,12.57c3.038,5.422,4.56,11.996,4.56,19.717C141.777,300.573,140.255,307.104,137.218,312.609z"
				/>
		</g>
		<g>
			<path d="M294.532,239.041c-11.175-9.528-26.864-14.294-47.073-14.294c-10.517,0-20.868,1.397-31.054,4.189
				c-10.189,2.797-18.896,6.739-26.124,11.831l13.801,26.861c4.764-3.777,10.555-6.777,17.375-8.995
				c6.816-2.218,13.759-3.326,20.826-3.326c10.351,0,18.03,2.3,23.043,6.9c5.009,4.601,7.517,11.012,7.517,19.221h-30.561
				c-13.475,0-24.398,1.688-32.779,5.054c-8.378,3.372-14.501,8.011-18.359,13.924c-3.863,5.917-5.792,12.816-5.792,20.704
				c0,7.558,1.971,14.377,5.914,20.456c3.943,6.079,9.612,10.887,17.005,14.418c7.394,3.529,16.267,5.297,26.617,5.297
				c11.664,0,21.195-2.218,28.589-6.653c5.007-3.005,8.932-6.974,11.829-11.861v16.542h35.982v-75.66
				C311.29,263.438,305.702,248.571,294.532,239.041z M261.753,330.845c-5.095,3.043-10.843,4.561-17.252,4.561
				c-6.739,0-12.038-1.438-15.896-4.314c-3.864-2.873-5.792-6.777-5.792-11.707c0-4.435,1.683-8.131,5.052-11.089
				c3.366-2.959,9.569-4.438,18.608-4.438h26.371v13.557C270.541,323.329,266.844,327.808,261.753,330.845z"/>
		</g>
		<g>
			<rect x="323.328" y="176.441" width="38.448" height="182.868"/>
		</g>
		<g>
			<rect x="372.91" y="176.441" width="38.447" height="182.868"/>
		</g>
	</g>
	<g>
		<g>
			<path d="M645.143,159.407c-17.065,0.036-33.037,6.674-44.973,18.691c-11.938,12.022-18.464,28.063-18.379,45.169
				c0.17,34.701,28.602,62.934,63.379,62.934h0.003l0.764-0.005c34.577-0.4,62.669-28.918,62.624-63.573
				C708.515,187.767,680.065,159.407,645.143,159.407z M686.59,187.047c2.684,3.039,4.866,6.217,6.635,9.636
				c8.696,16.818,8.925,33.966,0.621,51.099c-6.474-0.653-12.864-2.394-19.027-5.183c5.007-9.214,8.511-19.133,10.42-29.5
				C686.836,204.407,687.289,195.662,686.59,187.047z M599.349,252.682c4.426-5.217,9.535-9.949,15.204-14.083
				c6.165,8.278,13.665,15.341,22.312,21.006c9.525,6.242,20.128,10.523,31.558,12.747c-1.727,0.824-3.433,1.507-5.151,2.065
				c-18.896,6.142-36.432,3.175-52.221-8.86C606.678,262.228,602.742,257.896,599.349,252.682z M669.75,233.342
				c-0.53,1.13-1.103,2.242-1.677,3.353l-0.213,0.414c-0.219,0.423-0.437,0.847-0.661,1.287c-5.066-3.337-9.583-7.474-13.777-12.605
				c-1.034-1.266-2.056-2.5-3.128-3.667l1.31-2.725c1.476-3.062,3.001-6.226,4.313-9.455c2.794-6.851,3.885-14.384,3.244-22.392
				c-0.497-6.278-2.037-12.528-4.587-18.613c7.793,1.349,14.922,4.263,21.728,8.886c0.276,0.189,0.393,0.308,0.473,0.808
				c1.117,6.646,1.586,12.611,1.431,18.242C677.855,209.78,675.012,222.048,669.75,233.342z M646.95,188.973
				c-17.964,0.561-34.406,6.183-48.861,16.718c-2.148,1.563-4.219,3.235-6.267,5.064c0.752-3.44,1.823-6.693,3.205-9.704
				c7.734-16.895,20.831-27.583,38.924-31.768c3.126-0.723,6.597-1.116,10.61-1.197c3.416,6.368,5.432,13.346,6,20.878
				L646.95,188.973z M590.905,224.03l0.185-0.205c6.752-7.348,13.676-12.875,21.173-16.896c6.776-3.633,13.984-6.244,21.43-7.762
				c3.459-0.707,7.023-1.165,10.586-1.364c1.246-0.069,2.5-0.086,3.752-0.105c0.746-0.012,1.49-0.02,2.232-0.041
				c-0.618,3.984-1.541,7.251-2.873,10.202c-0.951,2.114-1.94,4.208-2.93,6.306c-0.763,1.617-1.53,3.239-2.282,4.872
				c-0.002,0.003-0.005,0.003-0.005,0.003l-3.446,0.762c-3.336,0.735-6.673,1.47-9.989,2.292
				c-5.911,1.455-11.108,4.298-14.974,6.612c-6.289,3.761-12.265,8.764-18.794,15.745c-1.614-3.706-2.791-7.574-3.584-11.771
				c-0.292-1.537-0.447-3.173-0.608-4.837c-0.103-1.096-0.206-2.192-0.367-3.225C590.463,224.503,590.789,224.152,590.905,224.03z
				 M621.986,234.027c3.781-1.948,7.148-3.203,10.515-3.916c3.706-0.787,7.402-1.616,11.086-2.497
				c0.691,0.798,1.373,1.616,2.119,2.501c2.17,2.58,4.414,5.247,6.942,7.667c10.158,9.714,22.274,15.795,36.044,18.09
				c-0.945,1.242-2.008,2.511-3.264,3.882c-1.856,2.022-3.885,3.927-6.054,5.679c-1.089-0.2-2.175-0.391-3.261-0.577
				c-5.35-0.942-10.876-1.913-16.083-3.662C644.62,256.016,631.829,246.877,621.986,234.027z"/>
		</g>
		<g>
			<path fill-rule="evenodd" clip-rule="evenodd" fill="#009BDB" d="M594.314,248.612c-2.551-4.972-4.241-10.108-5.257-15.488
				c-0.522-2.732-0.62-5.51-0.984-8.259c-0.16-1.233,0.607-1.919,1.27-2.64c6.361-6.925,13.458-12.913,21.799-17.387
				c6.979-3.741,14.335-6.417,22.075-7.998c3.597-0.731,7.245-1.202,10.929-1.405c2.418-0.136,4.83-0.08,7.239-0.194
				c1.267-0.058,1.557,0.418,1.402,1.554c-0.563,4.153-1.507,8.213-3.231,12.043c-1.738,3.841-3.589,7.637-5.35,11.47
				c-0.329,0.708-0.856,0.901-1.52,1.047c-4.463,0.997-8.942,1.943-13.38,3.04c-5.138,1.269-9.813,3.645-14.326,6.346
				c-6.913,4.135-12.817,9.491-18.292,15.35C595.938,246.888,595.31,247.806,594.314,248.612z"/>
		</g>
		<g>
			<path fill-rule="evenodd" clip-rule="evenodd" fill="#009BDB" d="M650.692,166.018c9.925,0.992,18.823,4.333,26.95,9.848
				c0.906,0.617,1.301,1.36,1.473,2.371c1.038,6.193,1.636,12.424,1.462,18.704c-0.354,13.052-3.156,25.55-8.68,37.405
				c-0.971,2.077-2.086,4.084-3.09,6.147c-0.468,0.971-0.906,1.169-1.918,0.528c-5.882-3.716-10.918-8.361-15.306-13.731
				c-1.089-1.334-2.188-2.66-3.357-3.921c-0.563-0.61-0.641-1.083-0.284-1.832c1.968-4.142,4.051-8.246,5.78-12.489
				c2.777-6.818,3.661-13.956,3.076-21.311c-0.591-7.452-2.625-14.467-5.917-21.147
				C650.811,166.445,650.774,166.282,650.692,166.018z"/>
		</g>
		<g>
			<path fill-rule="evenodd" clip-rule="evenodd" fill="#FDC139" d="M675.406,271.175c-3.776,2.387-7.472,4.22-11.403,5.498
				c-19.73,6.412-37.898,3.339-54.391-9.23c-5.131-3.909-9.301-8.75-12.744-14.218c-0.345-0.545-0.34-0.864,0.068-1.356
				c5.112-6.161,10.957-11.516,17.504-16.119c0.781-0.547,0.944-0.036,1.271,0.412c6.162,8.539,13.647,15.692,22.454,21.459
				c10.323,6.769,21.611,11.01,33.786,12.946C673,270.732,674.036,270.931,675.406,271.175z"/>
		</g>
		<g>
			<path fill-rule="evenodd" clip-rule="evenodd" fill="#F0F0F0" d="M647.027,191.344c-17.41,0.543-33.325,5.903-47.542,16.263
				c-3.521,2.563-6.79,5.418-9.863,8.499c-0.322,0.323-0.599,1.014-1.135,0.718c-0.495-0.273,0.057-0.796,0.111-1.208
				c0.65-5.391,2.011-10.613,4.271-15.549c8.089-17.66,21.615-28.715,40.549-33.096c3.803-0.878,7.682-1.207,11.582-1.261
				c0.704-0.014,1.077,0.204,1.426,0.839c4.028,7.342,6.159,15.203,6.584,23.557c0.058,1.046-0.132,1.541-1.284,1.287
				c-0.393-0.086-0.816-0.047-1.224-0.049C649.394,191.344,648.285,191.344,647.027,191.344z"/>
		</g>
		<g>
			<path fill-rule="evenodd" clip-rule="evenodd" fill="#F0F0F0" d="M692.779,254.127c-1.658,2.653-3.56,4.999-5.601,7.232
				c-2.001,2.177-4.154,4.192-6.464,6.04c-0.455,0.368-0.878,0.529-1.448,0.426c-6.712-1.229-13.477-2.194-19.989-4.383
				c-16.591-5.576-30.026-15.428-40.348-29.542c-0.144-0.194-0.267-0.407-0.442-0.681c4.295-2.422,8.705-4.404,13.519-5.432
				c3.8-0.808,7.591-1.655,11.368-2.562c0.794-0.188,1.228-0.07,1.769,0.555c3.002,3.475,5.823,7.102,9.145,10.289
				c10.459,10.005,22.866,15.927,37.205,17.823C691.888,253.942,692.276,254.036,692.779,254.127z"/>
		</g>
		<g>
			<path fill-rule="evenodd" clip-rule="evenodd" fill="#FDC139" d="M683.533,180.594c4.922,4.459,8.879,9.354,11.8,14.996
				c9.18,17.756,9.335,35.625,0.485,53.562c-0.395,0.806-0.806,1.121-1.759,1.035c-7.588-0.709-14.781-2.771-21.637-6.07
				c-0.747-0.359-0.799-0.655-0.409-1.348c5.308-9.427,8.934-19.46,10.89-30.102c1.893-10.281,2.166-20.601,0.711-30.96
				C683.572,181.426,683.572,181.135,683.533,180.594z"/>
		</g>
	</g>
	<g>
		<g>
			<path fill-rule="evenodd" clip-rule="evenodd" fill="#020202" d="M483.307,215.084c0.344-0.261,0.688-0.519,1.029-0.776
				c0.665,0.276,0.947-0.342,1.325-0.627c3.706-2.753,7.658-5.132,11.807-7.13c18.35-8.854,37.455-10.724,57.184-5.782
				c14.539,3.639,27.122,10.833,37.783,21.398c1.242,1.232,2.173,2.823,3.85,3.604c2.584,3.428,5.172,6.85,7.765,10.278
				c-0.239,1.895,1.381,2.956,2.126,4.357c2.109,3.978,4.014,8.024,5.508,12.25c3.401,9.628,4.967,19.552,4.597,29.797
				c-0.234,6.469-1.086,12.848-2.745,19.069c-1.904,7.131-4.863,13.867-8.612,20.229c-7.088,12.02-16.76,21.517-28.634,28.74
				c-7.859,4.778-16.306,8.287-25.372,10.001c-29.411,5.563-54.855-2.092-76.207-23.165c-0.759-0.757-1.261-1.828-2.391-2.187
				c-2.716-3.596-5.434-7.193-8.151-10.789c0.232-0.282,0.02-0.483-0.118-0.699c-2.322-3.672-4.319-7.509-5.979-11.524
				c-7.994-19.307-8.614-38.913-1.951-58.668c4.529-13.433,12.21-24.863,22.788-34.364
				C480.378,217.77,482.212,216.819,483.307,215.084z M608.363,277.561c0.352-0.606,0.12-1.259,0.077-1.867
				c-1.178-18.363-8.244-34.157-20.875-47.467c-1.358-1.431-2.495-3.245-4.692-3.711c-13.298-2.824-26.583-2.782-39.853,0.18
				c-0.508,0.115-1.077,0.104-1.545,0.549c0.24,0.282,0.475,0.566,0.723,0.837c0.257,0.272,0.545,0.516,0.797,0.795
				c6.723,7.414,14.392,13.711,22.973,18.835c6.738,4.025,13.743,7.607,20.315,11.915c6.489,4.26,12.75,8.79,17.888,14.725
				c1.471,1.699,2.676,3.589,4.228,5.216c-0.027,0.066-0.053,0.131-0.08,0.196c0.027-0.017,0.072-0.033,0.072-0.047
				C608.391,277.659,608.371,277.612,608.363,277.561z M524.854,251.097c-3.428-4.535-6.867-9.063-10.265-13.621
				c-0.446-0.597-0.748-0.727-1.411-0.311c-3.401,2.157-6.627,4.556-9.797,7.04c-0.684,0.531-0.657,0.898-0.181,1.547
				c1.513,2.028,2.664,4.266,3.614,6.605c2.517,6.222,3.577,12.753,4.067,19.392c0.96,13.042,0.056,26.039-0.806,39.041
				c-0.65,9.844-1.616,19.674-1.21,29.557c0.126,3.053,0.353,6.102,1.469,8.979c0.491,1.264,0.998,2.431,2.63,2.876
				c18.146,4.975,35.738,3.577,52.837-4.269c0.717-0.333,1.025-0.677,0.922-1.563c-2.212-19.111-6.482-37.598-15.967-54.607
				c-4.438-7.957-9.176-15.722-14.223-23.302C532.667,262.66,528.704,256.924,524.854,251.097z M579.071,339.644
				c3.325-2.374,6.359-5.077,9.146-8.066c9.729-10.442,16.044-22.645,18.882-36.642c0.106-0.531,0.099-1.038-0.017-1.581
				c-1.384-6.579-4.648-12.175-9.092-17.102c-4.724-5.246-10.502-9.207-16.375-13.051c-7.162-4.694-14.943-8.335-22.104-13.006
				c-9.46-6.168-18.094-13.298-24.986-22.346c-0.536-0.703-0.997-0.502-1.652-0.277c-3.895,1.363-7.651,3.046-11.378,4.813
				c-1.182,0.56-1.021,0.951-0.379,1.817c5.175,6.915,10.191,13.947,15.15,21.014c7.386,10.533,14.447,21.263,20.584,32.591
				c6.343,11.69,10.942,24.001,13.658,37.016c1.192,5.712,2.155,11.462,2.863,17.255c0.175,1.422,0.568,1.51,1.603,0.673
				C576.313,341.68,577.702,340.675,579.071,339.644z M502.552,348.276c-0.68-3.846-0.901-7.526-0.979-11.222
				c-0.219-10.154,0.852-20.253,1.509-30.364c0.796-12.308,1.556-24.619,0.342-36.946c-0.582-5.938-1.564-11.823-4.481-17.109
				c-2.02-3.665-1.445-3.324-4.22-0.763c-0.121,0.113-0.218,0.239-0.336,0.351c-9.461,9.152-17.261,19.543-23.155,31.319
				c-3.373,6.744-6.1,13.73-6.588,21.362c-0.114,1.728-0.347,3.483,0.415,5.214c6.015,13.651,15.22,24.588,27.662,32.805
				C495.788,344.95,498.979,346.775,502.552,348.276z M459.965,291.65c0.169-0.429,0.361-0.854,0.513-1.288
				c2.886-8.173,6.915-15.754,11.706-22.956c5.446-8.193,11.856-15.553,19.044-22.241c0.93-0.866,0.709-1.199-0.168-1.854
				c-5.479-4.107-11.348-5.075-17.622-2.11c-3.119,1.474-5.754,3.396-7.328,6.803C459.685,261.931,457.549,276.432,459.965,291.65z
				 M475.892,232.669c2.563-0.264,4.669-0.652,6.81-0.381c5.362,0.691,10.046,2.891,14.18,6.297c0.624,0.513,0.997,0.73,1.725,0.135
				c3.196-2.604,6.447-5.148,9.997-7.269c0.869-0.516,0.898-0.929,0.288-1.728c-3.543-4.637-7.063-9.297-10.521-14.001
				c-0.689-0.944-1.253-0.899-2.092-0.34c-1.966,1.297-4.001,2.486-5.939,3.825C484.994,222.906,480.348,227.355,475.892,232.669z
				 M530.444,205.455c-8.875,0.424-17.277,2.286-25.361,5.613c-1.147,0.471-0.45,0.923-0.11,1.386
				c3.371,4.568,6.786,9.107,10.114,13.707c0.628,0.872,1.159,0.825,1.966,0.401c4.031-2.116,8.188-3.956,12.507-5.393
				c0.843-0.282,1.059-0.651,0.764-1.5C528.717,215.002,528.733,210.327,530.444,205.455z M570.722,215.56
				c-0.114-0.201-0.165-0.378-0.277-0.467c-0.246-0.199-0.518-0.379-0.794-0.527c-9.394-5.123-19.44-8.046-30.091-8.965
				c-0.898-0.07-1.357,0.222-1.761,0.997c-1.879,3.653-1.935,7.355-0.535,11.172c0.295,0.806,0.658,0.786,1.294,0.624
				C549.107,215.739,559.817,214.762,570.722,215.56z"/>
		</g>
		<g>
			<path fill-rule="evenodd" clip-rule="evenodd" fill="#FD6F43" d="M524.854,251.097c3.851,5.827,7.813,11.563,11.681,17.363
				c5.047,7.58,9.785,15.346,14.223,23.302c9.484,17.01,13.755,35.496,15.967,54.607c0.104,0.887-0.205,1.23-0.922,1.563
				c-17.099,7.846-34.691,9.243-52.837,4.269c-1.632-0.445-2.139-1.612-2.63-2.876c-1.116-2.878-1.343-5.927-1.469-8.979
				c-0.406-9.883,0.56-19.713,1.21-29.557c0.861-13.002,1.766-25.998,0.806-39.041c-0.49-6.639-1.551-13.17-4.067-19.392
				c-0.95-2.34-2.102-4.577-3.614-6.605c-0.477-0.648-0.503-1.016,0.181-1.547c3.17-2.484,6.396-4.883,9.797-7.04
				c0.663-0.416,0.965-0.286,1.411,0.311C517.986,242.034,521.426,246.562,524.854,251.097z"/>
		</g>
		<g>
			<path fill-rule="evenodd" clip-rule="evenodd" fill="#FD6F43" d="M579.071,339.644c-1.369,1.031-2.758,2.036-4.096,3.108
				c-1.034,0.837-1.428,0.749-1.603-0.673c-0.708-5.793-1.671-11.543-2.863-17.255c-2.716-13.015-7.315-25.325-13.658-37.016
				c-6.137-11.329-13.198-22.058-20.584-32.591c-4.959-7.066-9.976-14.099-15.15-21.014c-0.643-0.866-0.803-1.258,0.379-1.817
				c3.727-1.768,7.483-3.45,11.378-4.813c0.655-0.225,1.116-0.426,1.652,0.277c6.893,9.048,15.526,16.178,24.986,22.346
				c7.16,4.671,14.941,8.312,22.104,13.006c5.873,3.844,11.651,7.805,16.375,13.051c4.443,4.927,7.708,10.523,9.092,17.102
				c0.115,0.543,0.123,1.05,0.017,1.581c-2.838,13.997-9.152,26.199-18.882,36.642C585.431,334.567,582.396,337.27,579.071,339.644z
				"/>
		</g>
		<g>
			<path fill-rule="evenodd" clip-rule="evenodd" fill="#FD6F43" d="M502.552,348.276c-3.573-1.501-6.764-3.326-9.832-5.354
				c-12.442-8.217-21.647-19.153-27.662-32.805c-0.762-1.73-0.529-3.486-0.415-5.214c0.488-7.632,3.215-14.618,6.588-21.362
				c5.895-11.776,13.694-22.167,23.155-31.319c0.118-0.111,0.215-0.237,0.336-0.351c2.774-2.562,2.2-2.902,4.22,0.763
				c2.917,5.286,3.899,11.171,4.481,17.109c1.214,12.327,0.454,24.638-0.342,36.946c-0.657,10.111-1.728,20.21-1.509,30.364
				C501.65,340.75,501.872,344.43,502.552,348.276z"/>
		</g>
		<g>
			<path fill-rule="evenodd" clip-rule="evenodd" fill="#FD6F43" d="M608.398,277.566c-1.552-1.627-2.757-3.517-4.228-5.216
				c-5.138-5.935-11.398-10.465-17.888-14.725c-6.572-4.308-13.577-7.89-20.315-11.915c-8.581-5.124-16.25-11.421-22.973-18.835
				c-0.252-0.279-0.54-0.522-0.797-0.795c-0.248-0.271-0.482-0.555-0.723-0.837c0.468-0.444,1.037-0.434,1.545-0.549
				c13.27-2.962,26.555-3.004,39.853-0.18c2.197,0.466,3.334,2.28,4.692,3.711c12.631,13.31,19.697,29.104,20.875,47.467
				c0.043,0.608,0.274,1.261-0.077,1.867L608.398,277.566z"/>
		</g>
		<g>
			<path fill-rule="evenodd" clip-rule="evenodd" fill="#FD6F43" d="M459.965,291.65c-2.416-15.218-0.28-29.719,6.145-43.647
				c1.574-3.407,4.209-5.329,7.328-6.803c6.274-2.965,12.143-1.997,17.622,2.11c0.877,0.655,1.098,0.988,0.168,1.854
				c-7.188,6.688-13.598,14.048-19.044,22.241c-4.791,7.201-8.82,14.782-11.706,22.956
				C460.326,290.796,460.134,291.221,459.965,291.65z"/>
		</g>
		<g>
			<path fill-rule="evenodd" clip-rule="evenodd" fill="#FD6F43" d="M475.892,232.669c4.456-5.313,9.103-9.763,14.447-13.461
				c1.938-1.339,3.974-2.528,5.939-3.825c0.839-0.56,1.402-0.604,2.092,0.34c3.457,4.704,6.978,9.364,10.521,14.001
				c0.61,0.799,0.581,1.212-0.288,1.728c-3.55,2.12-6.801,4.665-9.997,7.269c-0.728,0.596-1.101,0.378-1.725-0.135
				c-4.134-3.406-8.817-5.605-14.18-6.297C480.561,232.017,478.455,232.405,475.892,232.669z"/>
		</g>
		<g>
			<path fill-rule="evenodd" clip-rule="evenodd" fill="#FD6F43" d="M530.444,205.455c-1.711,4.872-1.728,9.547-0.121,14.215
				c0.295,0.849,0.079,1.218-0.764,1.5c-4.318,1.437-8.476,3.276-12.507,5.393c-0.807,0.424-1.338,0.471-1.966-0.401
				c-3.328-4.6-6.743-9.139-10.114-13.707c-0.34-0.463-1.037-0.915,0.11-1.386C513.167,207.741,521.569,205.879,530.444,205.455z"/>
		</g>
		<g>
			<path fill-rule="evenodd" clip-rule="evenodd" fill="#FD6F43" d="M570.722,215.56c-10.904-0.798-21.614,0.18-32.164,2.834
				c-0.636,0.162-0.999,0.182-1.294-0.624c-1.399-3.816-1.344-7.519,0.535-11.172c0.403-0.775,0.862-1.067,1.761-0.997
				c10.65,0.919,20.697,3.842,30.091,8.965c0.276,0.148,0.548,0.328,0.794,0.527C570.557,215.182,570.607,215.358,570.722,215.56z"
				/>
		</g>
		<g>
			<path fill-rule="evenodd" clip-rule="evenodd" fill="#FD6F43" d="M631.445,276.089c0.008,0.051,0.027,0.097,0.027,0.153
				c0,0.013-0.044,0.029-0.071,0.046c0.027-0.064,0.052-0.128,0.079-0.193L631.445,276.089z"/>
		</g>
	</g>
	<g>
		<g>
			<path fill-rule="evenodd" clip-rule="evenodd" d="M648.802,75.206c-10.891,0.047-19.898-8.963-19.748-20.015
				c0.146-10.819,9.117-19.646,20.066-19.472c10.789,0.17,19.602,9.124,19.426,20.068C668.374,66.521,659.544,75.243,648.802,75.206
				z M648.79,38.866c-9.111,0.007-16.582,7.475-16.592,16.588c-0.01,9.121,7.49,16.621,16.611,16.613
				c9.113-0.011,16.58-7.478,16.592-16.588C665.409,46.356,657.911,38.858,648.79,38.866z"/>
		</g>
		<g>
			<path fill-rule="evenodd" clip-rule="evenodd" d="M645.115,57.264c0,2.801,0,5.521,0,8.33c-0.546,0-1.059,0.001-1.566,0
				c-0.519,0-1.04-0.027-1.555,0.006c-0.436,0.029-0.577-0.098-0.571-0.553c0.025-2.021,0.013-4.045,0.013-6.068
				c0-4.328,0-8.655,0-12.987c0-0.196,0-0.394,0-0.601c0.118-0.033,0.197-0.07,0.275-0.07c3.273,0.013,6.553-0.036,9.824,0.072
				c2.094,0.066,3.904,0.855,5.039,2.776c1.743,2.942,0.642,6.755-2.405,8.255c-0.368,0.18-0.432,0.335-0.279,0.715
				c1.05,2.601,2.077,5.215,3.11,7.822c0.065,0.169,0.131,0.342,0.218,0.566c-0.158,0.027-0.281,0.063-0.4,0.063
				c-1.022,0.004-2.041-0.01-3.059,0.005c-0.299,0.003-0.435-0.099-0.538-0.38c-0.932-2.486-1.889-4.965-2.816-7.453
				c-0.133-0.369-0.305-0.518-0.713-0.508C648.189,57.281,646.687,57.264,645.115,57.264z M645.133,54.281
				c0.135,0.014,0.234,0.037,0.328,0.037c1.537-0.002,3.076,0.027,4.606-0.027c0.608-0.023,1.229-0.178,1.798-0.393
				c0.888-0.334,1.412-1.039,1.584-1.977c0.348-1.914-0.703-3.437-2.661-3.588c-1.843-0.143-3.701-0.05-5.552-0.061
				c-0.027,0-0.053,0.036-0.104,0.071C645.133,50.293,645.133,52.259,645.133,54.281z"/>
		</g>
	</g>
</g>
</svg>
