<?xml version="1.0" encoding="utf-8"?>
<!-- Generator: Adobe Illustrator 16.0.0, SVG Export Plug-In . SVG Version: 6.00 Build 0)  -->
<!DOCTYPE svg PUBLIC "-//W3C//DTD SVG 1.1//EN" "http://www.w3.org/Graphics/SVG/1.1/DTD/svg11.dtd">
<svg version="1.1" id="Capa_1" xmlns="http://www.w3.org/2000/svg" xmlns:xlink="http://www.w3.org/1999/xlink" x="0px" y="0px"
	 width="754.878px" height="148.781px" viewBox="0 0 754.878 148.781" enable-background="new 0 0 754.878 148.781"
	 xml:space="preserve">
<g>
	<path fill="#BF0411" d="M408.429,17.582h-37.654l-35.308,80.77V71.305h-17.656h-15.616h-18.547v20.232h18.547v8.565
		c-0.437,0.175-0.871,0.346-1.3,0.497c-4.113,1.463-8.333,2.193-12.66,2.193c-4.113,0-7.818-0.674-11.118-2.029
		c-3.302-1.354-6.141-3.272-8.52-5.762c-2.382-2.487-4.221-5.492-5.52-9.008c-1.298-3.516-1.947-7.386-1.947-11.606
		c0-4.435,0.649-8.383,1.947-11.848c1.299-3.462,3.138-6.438,5.52-8.927c2.379-2.487,5.273-4.383,8.683-5.682
		c3.409-1.298,7.222-1.947,11.443-1.947c5.083,0,9.709,1.054,13.876,3.166c4.165,2.109,8.034,5.221,11.605,9.331l24.509-21.586
		c-5.738-7.033-13.013-12.441-21.83-16.23c-8.821-3.786-18.856-5.679-30.11-5.679c-7.297,0-14.119,0.872-20.473,2.595H153.266
		h-23.923h-7.566l-35.99,60.468L48.74,17.582H17.252v113.613h34.896V81.168l24.67,39.802h16.88l24.72-41.599l0.275,51.823h10.65
		h24.247h70.216v-28.89h-56.808V87.374h48.042V59.78h-48.042V46.472h62.092c-0.666,1.269-1.303,2.56-1.88,3.896
		c-3.141,7.25-4.708,15.255-4.708,24.02s1.567,16.773,4.708,24.021c3.136,7.252,7.546,13.528,13.226,18.828
		c5.681,5.303,12.389,9.389,20.125,12.253c7.735,2.867,16.205,4.303,25.402,4.303c8.331,0,16.934-1.245,25.807-3.732
		c4.092-1.148,7.97-2.539,11.649-4.146l-2.309,5.28h38.956l7.609-19.801h43.212l7.608,19.801h39.602L408.429,17.582z M378.28,83.802
		l10.998-28.616l11.002,28.616H378.28z"/>
	<g>
		<path d="M534.588,53.551c-6.126-3.439-13.031-5.161-20.721-5.161c-6.886,0-12.902,1.518-18.065,4.555
			c-2.432,1.43-4.601,3.221-6.526,5.348V18.636h-23.682v112.636h22.62v-9.473c2.044,2.481,4.416,4.535,7.135,6.134
			c5.16,3.036,11.331,4.554,18.519,4.554c7.689,0,14.595-1.745,20.721-5.235c6.122-3.491,10.979-8.375,14.572-14.649
			c3.591-6.274,5.391-13.663,5.391-22.164c0-8.599-1.8-16.038-5.391-22.315C545.568,61.851,540.71,56.993,534.588,53.551z
			 M527.757,102.508c-1.875,3.391-4.354,5.994-7.439,7.816c-3.088,1.821-6.602,2.732-10.549,2.732c-3.946,0-7.49-0.911-10.627-2.732
			c-3.139-1.822-5.617-4.426-7.438-7.816c-1.822-3.392-2.731-7.414-2.731-12.07c0-4.756,0.909-8.804,2.731-12.144
			c1.82-3.34,4.299-5.92,7.438-7.742c3.137-1.82,6.681-2.732,10.627-2.732c3.947,0,7.461,0.912,10.549,2.732
			c3.086,1.822,5.564,4.402,7.439,7.742c1.872,3.34,2.809,7.388,2.809,12.144C530.566,95.094,529.629,99.117,527.757,102.508z"/>
		<path d="M624.653,57.195c-6.882-5.869-16.546-8.805-28.994-8.805c-6.478,0-12.852,0.86-19.127,2.581
			c-6.274,1.723-11.639,4.149-16.091,7.286l8.502,16.546c2.933-2.328,6.502-4.175,10.7-5.54c4.2-1.367,8.477-2.05,12.829-2.05
			c6.375,0,11.105,1.416,14.193,4.251c3.085,2.833,4.629,6.781,4.629,11.839h-18.822c-8.3,0-15.028,1.039-20.191,3.111
			c-5.16,2.078-8.932,4.936-11.308,8.577c-2.38,3.645-3.567,7.894-3.567,12.753c0,4.655,1.214,8.855,3.644,12.6
			c2.428,3.744,5.92,6.705,10.474,8.879c4.555,2.175,10.02,3.264,16.395,3.264c7.184,0,13.056-1.365,17.608-4.098
			c3.085-1.851,5.502-4.295,7.286-7.305v10.188h22.164V84.671C634.976,72.222,631.535,63.065,624.653,57.195z M604.463,113.741
			c-3.139,1.874-6.679,2.808-10.626,2.808c-4.151,0-7.414-0.884-9.79-2.655c-2.38-1.771-3.569-4.176-3.569-7.213
			c0-2.732,1.037-5.008,3.112-6.83c2.073-1.822,5.895-2.733,11.462-2.733h16.242v8.35C609.876,109.11,607.6,111.871,604.463,113.741
			z"/>
		<rect x="642.389" y="18.636" width="23.682" height="112.636"/>
		<rect x="672.929" y="18.636" width="23.682" height="112.636"/>
	</g>
	<g>
		<path fill-rule="evenodd" clip-rule="evenodd" d="M723.612,46.664c-7.731,0.033-14.125-6.36-14.018-14.206
			c0.104-7.679,6.472-13.943,14.242-13.819c7.658,0.121,13.913,6.475,13.787,14.244C737.502,40.5,731.236,46.691,723.612,46.664z
			 M723.603,20.872c-6.467,0.004-11.771,5.305-11.776,11.773c-0.007,6.474,5.316,11.797,11.79,11.792
			c6.468-0.009,11.769-5.31,11.776-11.774C735.398,26.188,730.077,20.866,723.603,20.872z"/>
		<path fill-rule="evenodd" clip-rule="evenodd" d="M720.995,33.929c0,1.988,0,3.919,0,5.912c-0.387,0-0.752,0.001-1.112,0
			c-0.367,0-0.737-0.02-1.104,0.004c-0.309,0.021-0.409-0.069-0.404-0.392c0.018-1.435,0.008-2.871,0.008-4.308
			c0-3.071,0-6.144,0-9.218c0-0.14,0-0.28,0-0.427c0.084-0.023,0.14-0.05,0.196-0.05c2.322,0.01,4.65-0.024,6.973,0.051
			c1.485,0.047,2.771,0.608,3.576,1.972c1.237,2.088,0.455,4.794-1.708,5.858c-0.26,0.128-0.306,0.237-0.197,0.508
			c0.745,1.846,1.474,3.701,2.208,5.552c0.047,0.12,0.093,0.242,0.154,0.402c-0.112,0.019-0.199,0.044-0.283,0.044
			c-0.727,0.003-1.45-0.007-2.173,0.004c-0.211,0.002-0.309-0.071-0.381-0.271c-0.661-1.765-1.342-3.523-2-5.289
			c-0.093-0.262-0.215-0.368-0.506-0.36C723.176,33.94,722.11,33.929,720.995,33.929z M721.007,31.813
			c0.096,0.009,0.166,0.025,0.233,0.025c1.09-0.001,2.183,0.02,3.27-0.021c0.432-0.015,0.87-0.125,1.276-0.278
			c0.629-0.237,1-0.736,1.123-1.402c0.247-1.359-0.499-2.438-1.889-2.547c-1.308-0.101-2.627-0.034-3.941-0.042
			c-0.019,0-0.037,0.025-0.072,0.051C721.007,28.981,721.007,30.377,721.007,31.813z"/>
	</g>
</g>
</svg>
