<?xml version="1.0" encoding="utf-8"?>
<!-- Generator: Adobe Illustrator 16.0.0, SVG Export Plug-In . SVG Version: 6.00 Build 0)  -->
<!DOCTYPE svg PUBLIC "-//W3C//DTD SVG 1.1//EN" "http://www.w3.org/Graphics/SVG/1.1/DTD/svg11.dtd">
<svg version="1.1" id="Capa_1" xmlns="http://www.w3.org/2000/svg" xmlns:xlink="http://www.w3.org/1999/xlink" x="0px" y="0px"
	 width="349.364px" height="72.545px" viewBox="0 0 349.364 72.545" enable-background="new 0 0 349.364 72.545"
	 xml:space="preserve">
<g>
	<path fill="#BF0411" d="M188.776,10.437h-17.125l-16.059,36.734V34.87h-8.03h-7.102h-8.436v9.202h8.436v3.896
		c-0.199,0.079-0.396,0.157-0.592,0.226c-1.871,0.666-3.79,0.998-5.757,0.998c-1.871,0-3.556-0.307-5.057-0.923
		c-1.502-0.616-2.793-1.488-3.875-2.621c-1.083-1.131-1.919-2.497-2.51-4.097c-0.59-1.599-0.885-3.359-0.885-5.278
		c0-2.017,0.295-3.813,0.885-5.389c0.591-1.574,1.427-2.928,2.51-4.06c1.082-1.132,2.398-1.993,3.949-2.584
		c1.55-0.591,3.285-0.886,5.205-0.886c2.312,0,4.416,0.479,6.311,1.439c1.895,0.96,3.654,2.375,5.278,4.244l11.147-9.817
		c-2.609-3.199-5.918-5.658-9.928-7.382c-4.012-1.722-8.576-2.583-13.694-2.583c-3.318,0-6.421,0.397-9.311,1.181H72.727h-10.88
		h-3.441L42.038,37.938L25.188,10.437H10.868v51.672h15.871V39.356l11.22,18.102h7.677l11.243-18.919l0.125,23.569h4.844h11.028
		h31.935v-13.14H78.973v-6.791h21.85v-12.55h-21.85v-6.052h28.24c-0.303,0.577-0.593,1.164-0.855,1.771
		c-1.428,3.298-2.141,6.938-2.141,10.925s0.713,7.629,2.141,10.925c1.426,3.299,3.432,6.152,6.016,8.563s5.634,4.27,9.153,5.572
		c3.518,1.304,7.37,1.957,11.553,1.957c3.789,0,7.702-0.566,11.737-1.697c1.861-0.522,3.625-1.155,5.298-1.886l-1.05,2.401h17.717
		l3.46-9.006h19.653l3.46,9.006h18.011L188.776,10.437z M175.064,40.554l5.001-13.015l5.004,13.015H175.064z"/>
	<g>
		<path d="M246.154,26.796c-2.786-1.564-5.927-2.348-9.424-2.348c-3.131,0-5.868,0.69-8.216,2.071
			c-1.106,0.65-2.092,1.465-2.968,2.433V10.916h-10.771v51.228h10.288v-4.309c0.93,1.129,2.008,2.063,3.245,2.79
			c2.347,1.381,5.154,2.07,8.422,2.07c3.497,0,6.638-0.793,9.424-2.381c2.785-1.588,4.994-3.809,6.627-6.662
			c1.633-2.854,2.452-6.214,2.452-10.08c0-3.911-0.818-7.295-2.452-10.149C251.147,30.57,248.938,28.36,246.154,26.796z
			 M243.047,49.062c-0.853,1.542-1.98,2.726-3.384,3.555c-1.404,0.828-3.002,1.243-4.797,1.243s-3.407-0.415-4.833-1.243
			c-1.427-0.829-2.555-2.013-3.382-3.555c-0.829-1.543-1.243-3.372-1.243-5.489c0-2.163,0.414-4.004,1.243-5.523
			c0.828-1.519,1.955-2.692,3.382-3.521c1.427-0.827,3.039-1.242,4.833-1.242s3.393,0.415,4.797,1.242
			c1.403,0.829,2.531,2.003,3.384,3.521c0.851,1.52,1.277,3.36,1.277,5.523C244.325,45.689,243.898,47.519,243.047,49.062z"/>
		<path d="M287.116,28.453c-3.13-2.67-7.525-4.005-13.187-4.005c-2.946,0-5.845,0.392-8.699,1.174
			c-2.854,0.783-5.293,1.888-7.318,3.313l3.867,7.525c1.334-1.059,2.958-1.898,4.867-2.52c1.91-0.622,3.855-0.933,5.834-0.933
			c2.899,0,5.051,0.645,6.456,1.934c1.403,1.289,2.105,3.084,2.105,5.385h-8.561c-3.774,0-6.835,0.473-9.183,1.415
			c-2.347,0.945-4.062,2.244-5.143,3.9c-1.083,1.658-1.623,3.59-1.623,5.801c0,2.117,0.552,4.027,1.657,5.729
			c1.104,1.703,2.692,3.05,4.763,4.038c2.072,0.989,4.557,1.484,7.457,1.484c3.267,0,5.938-0.62,8.008-1.863
			c1.403-0.842,2.502-1.953,3.314-3.322v4.634h10.08V40.949C291.811,35.287,290.246,31.122,287.116,28.453z M277.933,54.17
			c-1.427,0.853-3.037,1.277-4.833,1.277c-1.888,0-3.372-0.402-4.453-1.208c-1.082-0.806-1.623-1.899-1.623-3.28
			c0-1.243,0.472-2.277,1.415-3.106s2.681-1.243,5.213-1.243h7.387v3.797C280.395,52.063,279.36,53.319,277.933,54.17z"/>
		<rect x="295.182" y="10.916" width="10.771" height="51.228"/>
		<rect x="309.072" y="10.916" width="10.771" height="51.228"/>
	</g>
	<g>
		<path fill-rule="evenodd" clip-rule="evenodd" d="M332.123,23.663c-3.517,0.015-6.424-2.893-6.375-6.461
			c0.048-3.492,2.943-6.342,6.478-6.285c3.483,0.055,6.328,2.944,6.271,6.479C338.44,20.859,335.59,23.676,332.123,23.663z
			 M332.119,11.933c-2.941,0.002-5.354,2.413-5.356,5.354c-0.003,2.944,2.418,5.365,5.362,5.363
			c2.942-0.004,5.353-2.415,5.356-5.355C337.483,14.351,335.063,11.93,332.119,11.933z"/>
		<path fill-rule="evenodd" clip-rule="evenodd" d="M330.932,17.871c0,0.904,0,1.782,0,2.689c-0.176,0-0.342,0-0.506,0
			c-0.167,0-0.335-0.009-0.502,0.002c-0.14,0.01-0.186-0.032-0.184-0.179c0.008-0.652,0.003-1.306,0.003-1.959
			c0-1.396,0-2.794,0-4.192c0-0.063,0-0.127,0-0.194c0.038-0.011,0.063-0.022,0.089-0.022c1.056,0.005,2.115-0.011,3.171,0.023
			c0.676,0.021,1.26,0.276,1.626,0.896c0.563,0.949,0.207,2.181-0.777,2.664c-0.118,0.059-0.139,0.108-0.089,0.231
			c0.339,0.839,0.67,1.684,1.004,2.524c0.021,0.055,0.042,0.11,0.07,0.184c-0.051,0.008-0.091,0.02-0.129,0.02
			c-0.331,0.002-0.66-0.003-0.988,0.002c-0.096,0.001-0.14-0.032-0.173-0.123c-0.301-0.803-0.61-1.603-0.91-2.405
			c-0.042-0.119-0.098-0.167-0.23-0.164C331.924,17.876,331.439,17.871,330.932,17.871z M330.938,16.909
			c0.043,0.004,0.075,0.012,0.106,0.012c0.496-0.001,0.993,0.009,1.487-0.01c0.196-0.007,0.396-0.057,0.581-0.127
			c0.286-0.107,0.455-0.335,0.511-0.638c0.112-0.618-0.227-1.108-0.859-1.158c-0.595-0.046-1.194-0.016-1.792-0.019
			c-0.008,0-0.017,0.011-0.033,0.022C330.938,15.621,330.938,16.256,330.938,16.909z"/>
	</g>
</g>
</svg>
